<?xml version="1.0" encoding="UTF-8"?><svg version="1.1" width="364px" height="100px" viewBox="0 0 364.0 100.0" xmlns="http://www.w3.org/2000/svg" xmlns:xlink="http://www.w3.org/1999/xlink"><defs><clipPath id="i0"><path d="M364,0 L364,100 L0,100 L0,0 L364,0 Z"></path></clipPath><clipPath id="i1"><path d="M49.633,0 L49.633,46.5386 L0,46.5386 L0,0 L49.633,0 Z"></path></clipPath><clipPath id="i2"><path d="M24.546,0 C31.668,0 37.63,2.293 42.431,6.88 C47.232,11.466 49.633,17.113 49.633,23.82 C49.633,30.445 47.238,35.888 42.447,40.148 C37.657,44.409 31.817,46.539 24.928,46.539 C17.933,46.539 12.029,44.24 7.217,39.644 C2.406,35.047 0,29.844 0,24.034 C0,19.692 1.091,15.656 3.275,11.925 C5.458,8.195 8.447,5.275 12.241,3.165 C16.035,1.055 20.137,0 24.546,0 Z M24.737,4.464 C21.26,4.464 17.959,5.336 14.832,7.079 C11.706,8.822 9.273,11.176 7.535,14.142 C5.797,17.108 4.928,20.405 4.928,24.034 C4.928,29.415 6.862,33.778 10.731,37.121 C14.599,40.464 19.268,42.136 24.737,42.136 C28.383,42.136 31.764,41.279 34.88,39.567 C37.996,37.855 40.423,35.526 42.161,32.58 C43.899,29.635 44.768,26.714 44.768,23.82 C44.768,20.232 43.899,16.981 42.161,14.066 C40.423,11.151 37.975,8.822 34.816,7.079 C31.658,5.336 28.298,4.464 24.737,4.464 Z"></path></clipPath><clipPath id="i3"><path d="M20.031,0.612 C22.829,1.223 25.108,2.543 26.867,4.571 C28.627,6.6 29.507,9.092 29.507,12.047 C29.507,14.534 28.902,16.705 27.694,18.56 C26.486,20.416 24.753,21.827 22.496,22.795 C20.238,23.764 18.283,24.248 16.629,24.248 L30.143,45.346 L24.356,45.346 L10.842,24.248 L4.706,24.248 L4.706,45.346 L0,45.346 L0,0 L9.38,0 C14.615,0 18.166,0.204 20.031,0.612 Z M13.004,4.434 L4.706,4.434 L4.706,19.845 L12.814,19.906 C15.951,19.906 18.277,19.621 19.793,19.05 C21.309,18.479 22.485,17.562 23.322,16.298 C24.16,15.034 24.578,13.617 24.578,12.047 C24.578,10.539 24.149,9.163 23.29,7.92 C22.432,6.676 21.314,5.784 19.936,5.244 C18.558,4.704 16.248,4.434 13.004,4.434 Z"></path></clipPath><clipPath id="i4"><path d="M1.017,0 L32.368,34.705 L32.368,0 L37.01,0 L37.01,45.346 L35.929,45.346 L4.897,11.069 L4.897,45.346 L0,45.346 L0,0 L1.017,0 Z"></path></clipPath><clipPath id="i5"><path d="M27.026,0 L27.026,4.464 L4.706,4.464 L4.706,18.652 L18.314,18.652 L18.314,23.055 L4.706,23.055 L4.706,40.851 L26.836,40.851 L26.836,45.346 L0,45.346 L0,0 L27.026,0 Z"></path></clipPath><clipPath id="i6"><path d="M4.738,0 L4.738,40.974 L22.861,40.974 L22.861,45.346 L0,45.346 L0,0 L4.738,0 Z"></path></clipPath><clipPath id="i7"><path d="M4.738,0 L4.738,40.974 L22.861,40.974 L22.861,45.346 L0,45.346 L0,0 L4.738,0 Z"></path></clipPath><clipPath id="i8"><path d="M23.433,0 L45.404,45.346 L40.38,45.346 L32.971,30.394 L12.622,30.394 L5.277,45.346 L0,45.346 L22.288,0 L23.433,0 Z M22.86,9.601 L14.721,26.051 L30.873,26.051 L22.86,9.601 Z"></path></clipPath><clipPath id="i9"><path d="M8.95,0 C11.907,0 14.276,1.086 16.056,3.257 C17.318,4.786 17.954,6.692 17.964,8.975 L2.305,8.975 C2.347,10.932 2.994,12.532 4.244,13.781 C5.495,15.029 7.037,15.656 8.871,15.656 C9.761,15.656 10.625,15.503 11.462,15.202 C12.299,14.902 13.015,14.509 13.603,14.02 C14.191,13.531 14.827,12.736 15.516,11.635 L17.392,12.598 C16.788,13.77 16.078,14.713 15.262,15.427 C14.445,16.14 13.529,16.68 12.511,17.052 C11.494,17.424 10.344,17.613 9.061,17.613 C6.221,17.613 4.001,16.716 2.4,14.927 C0.8,13.138 0,11.12 0,8.868 C0,6.738 0.678,4.842 2.035,3.18 C3.752,1.06 6.057,0 8.95,0 Z M8.966,2.064 C7.26,2.064 5.792,2.594 4.562,3.654 C3.672,4.429 2.999,5.586 2.543,7.125 L15.516,7.125 C15.219,5.973 14.785,5.051 14.212,4.363 C13.64,3.675 12.882,3.119 11.939,2.696 C10.996,2.273 10.005,2.064 8.966,2.064 Z"></path></clipPath><clipPath id="i10"><path d="M5.548,0 C7.149,0 8.765,0.755 10.397,2.263 L8.966,3.7 C7.758,2.579 6.587,2.018 5.453,2.018 C4.721,2.018 4.096,2.248 3.577,2.706 C3.058,3.165 2.798,3.71 2.798,4.342 C2.798,4.872 3.015,5.382 3.45,5.871 C3.874,6.391 4.769,6.987 6.136,7.66 C7.811,8.485 8.945,9.286 9.539,10.06 C10.121,10.845 10.413,11.727 10.413,12.705 C10.413,14.071 9.915,15.228 8.913,16.181 C7.912,17.134 6.656,17.613 5.151,17.613 C4.144,17.613 3.185,17.404 2.268,16.991 C1.351,16.578 0.593,16.002 0,15.258 L1.415,13.714 C2.559,14.958 3.773,15.579 5.055,15.579 C5.946,15.579 6.709,15.299 7.339,14.744 C7.97,14.188 8.283,13.541 8.283,12.797 C8.283,12.175 8.076,11.625 7.663,11.146 C7.249,10.667 6.311,10.065 4.849,9.342 C3.27,8.577 2.199,7.808 1.637,7.033 C1.065,6.279 0.779,5.412 0.779,4.434 C0.779,3.16 1.235,2.1 2.141,1.259 C3.047,0.418 4.181,0 5.548,0 Z"></path></clipPath><clipPath id="i11"><path d="M2.25806006,0 L2.25806006,8.103 L6.40806006,8.103 L6.40806006,9.953 L2.27406006,9.953 L2.27406006,17.047 C2.21106006,18.8 2.82506006,20.151 4.11806006,21.099 C5.17806006,21.578 6.25906006,21.532 7.36206006,20.961 C7.64806006,21.726 7.88106006,22.322 8.06106006,22.75 C6.89506006,23.178 5.85606006,23.377 4.94506006,23.346 C3.22806006,23.255 1.87106006,22.398 0.875060058,20.778 C0.271060058,19.758 -0.019939942,18.637 0.00106005804,17.414 L0.00106005804,0 L2.25806006,0 Z"></path></clipPath><clipPath id="i12"><path d="M8.95,0 C11.907,0 14.276,1.086 16.057,3.257 C17.318,4.786 17.954,6.692 17.964,8.975 L2.305,8.975 C2.347,10.932 2.994,12.532 4.244,13.781 C5.495,15.029 7.037,15.656 8.871,15.656 C9.761,15.656 10.625,15.503 11.462,15.202 C12.299,14.902 13.009,14.509 13.598,14.02 C14.186,13.531 14.827,12.736 15.516,11.635 L17.392,12.598 C16.788,13.77 16.078,14.713 15.262,15.427 C14.446,16.14 13.529,16.68 12.511,17.052 C11.494,17.424 10.344,17.613 9.061,17.613 C6.221,17.613 4.001,16.716 2.4,14.927 C0.8,13.138 0,11.12 0,8.868 C0,6.738 0.678,4.842 2.035,3.18 C3.752,1.06 6.057,0 8.95,0 Z M8.966,2.064 C7.26,2.064 5.792,2.594 4.562,3.654 C3.672,4.429 2.999,5.586 2.543,7.125 L15.516,7.125 C15.219,5.973 14.785,5.051 14.212,4.363 C13.64,3.675 12.882,3.119 11.939,2.696 C10.996,2.273 10.005,2.064 8.966,2.064 Z"></path></clipPath><clipPath id="i13"><path d="M2.25806006,0 L2.25806006,8.103 L6.40806006,8.103 L6.40806006,9.953 L2.27406006,9.953 L2.27406006,17.047 C2.21106006,18.8 2.82506006,20.151 4.11806006,21.099 C5.17806006,21.578 6.25906006,21.532 7.36106006,20.961 C7.64806006,21.726 7.88106006,22.322 8.06106006,22.75 C6.89506006,23.178 5.85606006,23.377 4.94506006,23.346 C3.22806006,23.255 1.87106006,22.398 0.875060058,20.778 C0.271060058,19.758 -0.019939942,18.637 0.00106005804,17.414 L0.00106005804,0 L2.25806006,0 Z"></path></clipPath><clipPath id="i14"><path d="M2.973,6.895 L2.973,23.667 L0.731,23.667 L0.731,6.895 L2.973,6.895 Z M1.844,0 C2.353,0 2.793,0.173 3.158,0.52 C3.524,0.866 3.704,1.284 3.704,1.773 C3.704,2.263 3.524,2.681 3.158,3.032 C2.793,3.384 2.353,3.562 1.844,3.562 C1.335,3.562 0.901,3.384 0.54,3.032 C0.18,2.681 0,2.263 0,1.773 C0,1.284 0.18,0.866 0.54,0.52 C0.901,0.173 1.335,0 1.844,0 Z"></path></clipPath><clipPath id="i15"><path d="M9.761,0 C10.906,0 12.019,0.168 13.095,0.505 C14.17,0.841 15.082,1.279 15.834,1.825 C16.587,2.37 17.223,3.068 17.742,3.914 L15.961,4.984 C14.425,3.007 12.326,2.018 9.666,2.018 C7.536,2.018 5.771,2.676 4.367,3.99 C2.962,5.305 2.257,6.906 2.257,8.791 C2.257,10.014 2.581,11.166 3.227,12.251 C3.874,13.337 4.759,14.178 5.882,14.769 C7.006,15.36 8.267,15.656 9.666,15.656 C12.241,15.656 14.34,14.677 15.961,12.72 L17.742,13.836 C16.905,15.039 15.787,15.967 14.382,16.624 C12.978,17.281 11.372,17.613 9.57,17.613 C6.825,17.613 4.547,16.772 2.729,15.09 C0.911,13.408 0,11.365 0,8.959 C0,7.329 0.429,5.815 1.282,4.424 C2.136,3.032 3.301,1.947 4.78,1.167 C6.258,0.387 7.917,0 9.761,0 Z"></path></clipPath><clipPath id="i16"><path d="M18.219,0 L18.219,17.689 L0,17.689 L0,0 L18.219,0 Z"></path></clipPath><clipPath id="i17"><path d="M9.078,0 C11.76,0 13.985,0.933 15.755,2.798 C17.387,4.5 18.203,6.523 18.203,8.867 C18.211,10.9724545 18.2160909,12.7010496 18.2182727,14.0528813 L18.2189545,14.5421576 C18.2190455,14.6207602 18.219125,14.6978912 18.2191932,14.7735505 L18.2191932,15.9764836 C18.219125,16.0344838 18.2190455,16.0910125 18.2189545,16.1460697 L18.2182727,16.4587551 C18.2160909,17.2454959 18.211,17.6555455 18.203,17.689 L15.835,17.689 L15.835,13.882 C14.595,16.104 12.342,17.348 9.078,17.613 C6.407,17.613 4.224,16.736 2.533,14.988 C0.843,13.24 0,11.201 0,8.867 C0,6.544 0.801,4.525 2.401,2.813 C4.171,0.938 6.397,0 9.078,0 Z M9.078,2.11 C7.223,2.11 5.628,2.772 4.293,4.097 C2.957,5.422 2.29,7.023 2.29,8.898 C2.29,10.111 2.629,11.278 3.312,12.399 C3.996,13.52 5.157,14.468 6.789,15.243 C10.88,16.119 13.789,14.331 15.517,9.876 C15.612,8.45 15.453,7.084 15.04,5.779 C14.743,5.188 14.335,4.627 13.816,4.097 C12.512,2.772 10.933,2.11 9.078,2.11 Z"></path></clipPath></defs><g clip-path="url(#i0)"><g transform=""><g transform=""><g transform=""><g clip-path="url(#i1)"><g transform=""><g transform="translate(0.0 -0.0004000000000274895)"><g clip-path="url(#i2)"><polygon points="0,0.0004 49.633,0.0004 49.633,46.539 0,46.539 0,0.0004" stroke="none" fill="#212F24"></polygon></g></g></g></g></g></g><g transform="translate(72.29280000000001 0.7945999999999742)"><g clip-path="url(#i3)"><polygon points="0,0 30.143,0 30.143,45.346 0,45.346 0,0" stroke="none" fill="#212F24"></polygon></g></g></g><g transform="translate(124.86730000000003 0.7948999999999842)"><g clip-path="url(#i4)"><polygon points="0,0 37.01,0 37.01,45.346 0,45.346 0,0" stroke="none" fill="#212F24"></polygon></g></g><g transform="translate(186.34990000000002 0.7945999999999742)"><g clip-path="url(#i5)"><polygon points="0,0 27.026,0 27.026,45.346 0,45.346 0,0" stroke="none" fill="#212F24"></polygon></g></g><g transform="translate(235.68650000000002 0.6722999999999786)"><g clip-path="url(#i6)"><polygon points="0,0 22.861,0 22.861,45.346 0,45.346 0,0" stroke="none" fill="#212F24"></polygon></g></g><g transform="translate(278.9765 0.6722999999999786)"><g clip-path="url(#i7)"><polygon points="0,0 22.861,0 22.861,45.346 0,45.346 0,0" stroke="none" fill="#212F24"></polygon></g></g><g transform="translate(318.13930000000005 0.6726999999999776)"><g clip-path="url(#i8)"><polygon points="0,0 45.404,0 45.404,45.346 0,45.346 0,0" stroke="none" fill="#212F24"></polygon></g></g><g transform="translate(195.5446 75.82139999999998)"><g transform="translate(0.0 6.069299999999998)"><g clip-path="url(#i9)"><polygon points="0,0 17.964,0 17.964,17.613 0,17.613 0,0" stroke="none" fill="#212F24"></polygon></g></g><g transform="translate(27.020999999999987 6.069400000000002)"><g clip-path="url(#i10)"><polygon points="0,0 10.413,0 10.413,17.613 0,17.613 0,0" stroke="none" fill="#212F24"></polygon></g></g><g transform="translate(46.80763994195877 0.3358999999999952)"><g clip-path="url(#i11)"><polygon points="9.76996262e-15,0 8.06106006,0 8.06106006,23.349134 9.76996262e-15,23.349134 9.76996262e-15,0" stroke="none" fill="#212F24"></polygon></g></g><g transform="translate(64.11629999999997 6.069299999999998)"><g clip-path="url(#i12)"><polygon points="0,0 17.964,0 17.964,17.613 0,17.613 0,0" stroke="none" fill="#212F24"></polygon></g></g><g transform="translate(91.68743994195876 0.3358999999999952)"><g clip-path="url(#i13)"><polygon points="6.88338275e-15,0 8.06106006,0 8.06106006,23.349134 6.88338275e-15,23.349134 6.88338275e-15,0" stroke="none" fill="#212F24"></polygon></g></g><g transform="translate(108.77339999999998 0.0)"><g clip-path="url(#i14)"><polygon points="0,0 3.704,0 3.704,23.667 0,23.667 0,0" stroke="none" fill="#212F24"></polygon></g></g><g transform="translate(122.07459999999998 6.069500000000005)"><g clip-path="url(#i15)"><polygon points="0,0 17.742,0 17.742,17.613 0,17.613 0,0" stroke="none" fill="#212F24"></polygon></g></g><g transform="translate(149.77899999999994 6.069599999999994)"><g transform=""><g clip-path="url(#i16)"><g transform=""><g transform=""><g clip-path="url(#i17)"><polygon points="0,0 18.219,0 18.219,17.689 0,17.689 0,0" stroke="none" fill="#212F24"></polygon></g></g></g></g></g></g></g></g></svg>